<svg id="visual" viewBox="0 0 900 600" width="900" height="600" xmlns="http://www.w3.org/2000/svg" xmlns:xlink="http://www.w3.org/1999/xlink" version="1.1"><rect x="0" y="0" width="900" height="600" fill="#f1f1f1"></rect><defs><linearGradient id="grad1_0" x1="33.3%" y1="0%" x2="100%" y2="100%"><stop offset="20%" stop-color="#f1f1f1" stop-opacity="1"></stop><stop offset="80%" stop-color="#f1f1f1" stop-opacity="1"></stop></linearGradient></defs><defs><linearGradient id="grad2_0" x1="0%" y1="0%" x2="66.7%" y2="100%"><stop offset="20%" stop-color="#f1f1f1" stop-opacity="1"></stop><stop offset="80%" stop-color="#f1f1f1" stop-opacity="1"></stop></linearGradient></defs><g transform="translate(900, 0)"><path d="M0 270.4C-23.6 239.2 -47.3 207.9 -82.7 199.6C-118 191.2 -165.2 205.8 -191.2 191.2C-217.3 176.6 -222.2 132.8 -231.9 96.1C-241.6 59.3 -256 29.7 -270.4 0L0 0Z" fill="#001122"></path></g><g transform="translate(0, 600)"><path d="M0 -270.4C35.5 -266.9 71 -263.5 103.5 -249.8C135.9 -236.2 165.3 -212.4 184.6 -184.6C203.8 -156.7 212.8 -124.8 225.4 -93.4C238 -61.9 254.2 -31 270.4 0L0 0Z" fill="#001122"></path></g></svg>