<svg id="visual" viewBox="0 0 900 600" width="900" height="600" xmlns="http://www.w3.org/2000/svg" xmlns:xlink="http://www.w3.org/1999/xlink" version="1.1"><rect x="0" y="0" width="900" height="600" fill="#FFFFFF"></rect><defs><linearGradient id="grad1_0" x1="33.3%" y1="0%" x2="100%" y2="100%"><stop offset="20%" stop-color="#ffffff" stop-opacity="1"></stop><stop offset="80%" stop-color="#ffffff" stop-opacity="1"></stop></linearGradient></defs><defs><linearGradient id="grad2_0" x1="0%" y1="0%" x2="66.7%" y2="100%"><stop offset="20%" stop-color="#ffffff" stop-opacity="1"></stop><stop offset="80%" stop-color="#ffffff" stop-opacity="1"></stop></linearGradient></defs><g transform="translate(900, 0)"><path d="M0 297.5C-13 253.5 -26.1 209.4 -47.2 206.7C-68.3 203.9 -97.5 242.4 -119.3 247.8C-141.2 253.1 -155.7 225.4 -158.4 198.6C-161 171.8 -151.8 146 -172.8 137.8C-193.8 129.6 -245.1 139 -268 129.1C-290.9 119.1 -285.5 89.9 -285.7 65.2C-285.8 40.5 -291.6 20.2 -297.5 0L0 0Z" fill="#7490ff"></path></g><g transform="translate(0, 600)"><path d="M0 -297.5C15.5 -264.9 31 -232.3 52.1 -228.1C73.1 -224 99.8 -248.3 117.1 -243.3C134.5 -238.2 142.7 -203.8 139.7 -175.1C136.6 -146.5 122.5 -123.7 153.2 -122.2C184 -120.7 259.8 -140.5 268 -129.1C276.2 -117.6 216.9 -74.8 210.6 -48.1C204.2 -21.3 250.8 -10.7 297.5 0L0 0Z" fill="#7490ff"></path></g></svg>